<svg xmlns="http://www.w3.org/2000/svg" viewBox="0 0 512 512"
 class="_image_v0vuo_1" style="--avatar-radius: 50%; --avatar-size: 24px; background-color: #040404e6; transform: scale(0.6); ">
 <path fill="#fff" 
 d="m198.97 474.6-130.9 53.65a61.47 61.47 0 0 1-47.22-.3l-58.87-28.83-27.28-13.49 16.86-32.19 23-43.53 7.35 3.37 69.9 32.5 81.56-37.4 46.6-21.16 19 87.38Z"> </path>
 <path fill="#E2E1EB" d="m198.97 474.6-130.9 53.65a61.47 61.47 0 0 1-47.22-.3l-58.87-28.83a52.74 52.74 0 0 0 27.6-27.59l59.47 28.2 107.3-42.92 3.69-.6c13.18-5.83 19.31-21.47 13.49-34.96A26.62 26.62 0 0 0 149 405c-3.37 0-6.74.61-10.12 2.15l-5.51 1.84 46.6-21.16 19 86.77Z">
 </path>
 <path fill="#fff" d="M178.13 375.26v-39.55l31.88-.3 148.39-1.23 5 177.82H177.45l.68-136.74Z">
 </path><path fill="#E2E1EB" d="M294.63 411.75c-64.38 8.58-102.1-21.77-116.5-36.49a79.29 79.29 0 0 1-6.44-7.66l6.44-5.52 32.19-26.98 148.39-1.23 5 178.13H296.8c.12-53.29-.3-100.39-2.16-100.25Z">
 </path><path fill="#800080" d="M190.08 466.63h28.73l-16.86 39.24 55.58-55.8h-29.35l16.86-39.24-54.96 55.8Z">
 </path><path fill="#fff" d="M408.07 228.1c0 50.28-22.08 95.35-57.33 126.31A171.55 171.55 0 0 1 297.7 386L100.25 135.21a169.28 169.28 0 0 1 55.19-52.13 167.55 167.55 0 0 1 84.31-22.68c93.2 0 168.32 75.11 168.32 167.7Z">
 </path>
 <path fill="#E2E1EB" d="M377.1 260.3c0 34.33-9.5 66.52-26.06 94.11A171.54 171.54 0 0 1 298 386a171.3 171.3 0 0 1-57.64 10.12c-92.59 0-168-75.11-168-168 0-34.35 10.42-66.54 28.2-93.21a169.3 169.3 0 0 1 55.19-52.12 188.3 188.3 0 0 1 39.55-4.3c100.56.31 181.8 81.56 181.8 181.81Z">
 </path>
 <path fill="#040404e6" d="M357.79 261.21A159 159 0 0 1 298 385.7a171.27 171.27 0 0 1-57.64 10.11c-92.59 0-168-75.11-168-168 0-34.34 10.42-66.54 28.2-93.2a159.73 159.73 0 0 1 97.8-33.43c88 .62 159.43 72.05 159.43 160.04Z">
 </path>
 <path fill="#6D699C" d="M131.53 322.53s-50.6-64.38-30.05-126.31c20.54-61.94 88.3-87.38 119.57-43.54 31.27 43.84-6.75 86.46-29.13 87.38-22.38.92-65.91-2.76-60.4 82.47Z" opacity=".2">
 </path>
 <path fill="#fff" d="m437.5 510.16-93.51-39.86 2.45-96.88 84.62 37.4L512 446.38V512h-76.34l1.84-1.84Z">
 </path>
 <path fill="#E2E1EB" d="m431.98 411.44-14.1-6.13c-9.5-4.3-20.85-1.54-28.2 6.13-7.67 7.97-8.6 19.31-4 28.2a25.87 25.87 0 0 0 9.82 10.12l49.66 27.29c7.36 3.99 11.35 15.02 5.52 21.15l-15.33 14.1 2.15-2.14-93.51-39.86 2.45-96.88 84.62 37.4.92.62Z">
 </path></svg>
